<?xml version="1.0" encoding="UTF-8" standalone="no"?>
<!DOCTYPE svg PUBLIC "-//W3C//DTD SVG 1.1//EN"
 "http://www.w3.org/Graphics/SVG/1.1/DTD/svg11.dtd">
<!-- Generated by graphviz version 10.0.1 (20240210.2158)
 -->
<!-- Title: G Pages: 1 -->
<svg width="518pt" height="152pt"
 viewBox="0.00 0.00 518.00 152.00" xmlns="http://www.w3.org/2000/svg" xmlns:xlink="http://www.w3.org/1999/xlink">
<g id="graph0" class="graph" transform="scale(1 1) rotate(0) translate(4 148)">
<title>G</title>
<polygon fill="white" stroke="none" points="-4,4 -4,-148 514,-148 514,4 -4,4"/>
<!-- aws_instance.demo1 -->
<g id="node1" class="node">
<title>aws_instance.demo1</title>
<polygon fill="none" stroke="black" points="349.62,-144 203.12,-144 203.12,-108 349.62,-108 349.62,-144"/>
<text text-anchor="middle" x="276.38" y="-121.33" font-family="sans-serif" font-size="14.00">aws_instance.demo1</text>
</g>
<!-- aws_key_pair.ec2_key -->
<g id="node2" class="node">
<title>aws_key_pair.ec2_key</title>
<polygon fill="none" stroke="black" points="353.75,-36 199,-36 199,0 353.75,0 353.75,-36"/>
<text text-anchor="middle" x="276.38" y="-13.32" font-family="sans-serif" font-size="14.00">aws_key_pair.ec2_key</text>
</g>
<!-- tls_private_key.ec2_key -->
<g id="node5" class="node">
<title>tls_private_key.ec2_key</title>
<polygon fill="none" stroke="black" points="163,-63 0,-63 0,-27 163,-27 163,-63"/>
<text text-anchor="middle" x="81.5" y="-40.33" font-family="sans-serif" font-size="14.00">tls_private_key.ec2_key</text>
</g>
<!-- aws_key_pair.ec2_key&#45;&gt;tls_private_key.ec2_key -->
<g id="edge1" class="edge">
<title>aws_key_pair.ec2_key&#45;&gt;tls_private_key.ec2_key</title>
<path fill="none" stroke="black" d="M198.59,-28.75C190.74,-29.85 182.7,-30.97 174.7,-32.09"/>
<polygon fill="black" stroke="black" points="174.36,-28.61 164.95,-33.46 175.33,-35.54 174.36,-28.61"/>
</g>
<!-- local_file.ssh_key -->
<g id="node3" class="node">
<title>local_file.ssh_key</title>
<polygon fill="none" stroke="black" points="337.62,-90 215.12,-90 215.12,-54 337.62,-54 337.62,-90"/>
<text text-anchor="middle" x="276.38" y="-67.33" font-family="sans-serif" font-size="14.00">local_file.ssh_key</text>
</g>
<!-- local_file.ssh_key&#45;&gt;tls_private_key.ec2_key -->
<g id="edge2" class="edge">
<title>local_file.ssh_key&#45;&gt;tls_private_key.ec2_key</title>
<path fill="none" stroke="black" d="M214.88,-63.53C201.98,-61.73 188.07,-59.78 174.3,-57.85"/>
<polygon fill="black" stroke="black" points="175.18,-54.44 164.8,-56.52 174.21,-61.37 175.18,-54.44"/>
</g>
<!-- null_resource.n1 -->
<g id="node4" class="node">
<title>null_resource.n1</title>
<polygon fill="none" stroke="black" points="510,-117 389.75,-117 389.75,-81 510,-81 510,-117"/>
<text text-anchor="middle" x="449.88" y="-94.33" font-family="sans-serif" font-size="14.00">null_resource.n1</text>
</g>
<!-- null_resource.n1&#45;&gt;aws_instance.demo1 -->
<g id="edge3" class="edge">
<title>null_resource.n1&#45;&gt;aws_instance.demo1</title>
<path fill="none" stroke="black" d="M389.37,-108.37C380.26,-109.8 370.72,-111.3 361.2,-112.8"/>
<polygon fill="black" stroke="black" points="360.91,-109.31 351.57,-114.32 361.99,-116.22 360.91,-109.31"/>
</g>
<!-- null_resource.n1&#45;&gt;local_file.ssh_key -->
<g id="edge4" class="edge">
<title>null_resource.n1&#45;&gt;local_file.ssh_key</title>
<path fill="none" stroke="black" d="M389.37,-89.63C376.37,-87.59 362.48,-85.4 349.06,-83.29"/>
<polygon fill="black" stroke="black" points="349.85,-79.87 339.43,-81.77 348.76,-86.78 349.85,-79.87"/>
</g>
</g>
</svg>
